<svg xmlns="http://www.w3.org/2000/svg" class="graphdiagram" viewBox="-994.6446050294669 -223.0132054745423 1303.313871616685 639.1154243416693"><g class="layer relationships"><g class="related-pair"><g class="relationship" transform="translate(-580.5582629394531,34.23230842590335) rotate(-7.858080983189823)"><path class="relationship" d="M 115.76017021501379 4 L 391.05417979215173 4 L 391.05417979215173 16 L 423.05417979215173 0 L 391.05417979215173 -16 L 391.05417979215173 -4 L 115.76017021501379 -4 Z" fill="rgb(0, 0, 0)" stroke="rgb(51, 51, 51)" stroke-width="0px"/><text class="type" text-anchor="middle" baseline-shift="30%" alignment-baseline="alphabetic" x="253.40717500358278" y="0" font-size="50px" font-family="&quot;Gill Sans&quot;, &quot;Gill Sans MT&quot;, Calibri, sans-serif">PartOf</text></g></g><g class="related-pair"><g class="relationship" transform="translate(-580.5582629394531,34.23230842590335) rotate(21.72777617313245)"><path class="relationship" d="M 115.76017021501379 4 L 398.58993315663184 4 L 398.58993315663184 16 L 430.58993315663184 0 L 398.58993315663184 -16 L 398.58993315663184 -4 L 115.76017021501379 -4 Z" fill="rgb(0, 0, 0)" stroke="rgb(51, 51, 51)" stroke-width="0px"/><text class="type" text-anchor="middle" baseline-shift="30%" alignment-baseline="alphabetic" x="257.17505168582284" y="0" font-size="50px" font-family="&quot;Gill Sans&quot;, &quot;Gill Sans MT&quot;, Calibri, sans-serif">PartOf</text></g></g></g><g class="layer nodes"><circle class="node node-id-0" r="100.76017021501379" fill="rgb(255, 255, 255)" stroke="rgb(0, 0, 0)" stroke-width="8px" cx="-580.5582629394531" cy="34.23230842590335"/><circle class="node node-id-1" r="83.77245524872541" fill="rgb(255, 255, 255)" stroke="rgb(0, 0, 0)" stroke-width="8px" cx="-63.63170733826503" cy="-37.11173934527807"/><g class="caption"><text class="caption node" text-anchor="middle" alignment-baseline="central" x="-580.5582629394531" y="34.23230842590335" fill="rgb(51, 51, 51)" font-size="50px" font-family="&quot;Gill Sans&quot;, &quot;Gill Sans MT&quot;, Calibri, sans-serif">Engine</text></g><g class="caption"><text class="caption node" text-anchor="middle" alignment-baseline="central" x="-63.63170733826503" y="-37.11173934527807" fill="rgb(51, 51, 51)" font-size="50px" font-family="&quot;Gill Sans&quot;, &quot;Gill Sans MT&quot;, Calibri, sans-serif">Part1</text></g><circle class="node node-id-2" r="83.77245524872541" fill="rgb(255, 255, 255)" stroke="rgb(0, 0, 0)" stroke-width="8px" cx="-88.80537063258029" cy="230.2007527378627"/><g class="caption"><text class="caption node" text-anchor="middle" alignment-baseline="central" x="-88.80537063258029" y="230.2007527378627" fill="rgb(51, 51, 51)" font-size="50px" font-family="&quot;Gill Sans&quot;, &quot;Gill Sans MT&quot;, Calibri, sans-serif">Part2</text></g></g><g class="layer properties"><g class="speech-bubble node-speech-bubble" transform="translate(-681.3184331544669,34.23230842590335) "><path class="speech-bubble-outline" transform="scale(-1,1) " d="M 0 0 L 20 -10 L 20 -75 A 10 10 0 0 1 30 -85 L 301.826171875 -85 A 10 10 0 0 1 311.826171875 -75 L 311.826171875 75 A 10 10 0 0 1 301.826171875 85 L 30 85 A 10 10 0 0 1 20 75 L 20 10 Z" fill="rgb(255, 255, 255)" stroke="rgb(0, 0, 0)" stroke-width="3px"/><text class="speech-bubble-content property-key" x="-121.11328125" y="-50" alignment-baseline="central" text-anchor="end" font-size="50px" font-family="&quot;Gill Sans&quot;, &quot;Gill Sans MT&quot;, Calibri, sans-serif" xml:space="preserve">Height: </text><text class="speech-bubble-content property-key" x="-121.11328125" y="0" alignment-baseline="central" text-anchor="end" font-size="50px" font-family="&quot;Gill Sans&quot;, &quot;Gill Sans MT&quot;, Calibri, sans-serif" xml:space="preserve">Length: </text><text class="speech-bubble-content property-value" x="-121.11328125" y="-50" alignment-baseline="central" font-size="50px" font-family="&quot;Gill Sans&quot;, &quot;Gill Sans MT&quot;, Calibri, sans-serif">"25"</text><text class="speech-bubble-content property-value" x="-121.11328125" y="0" alignment-baseline="central" font-size="50px" font-family="&quot;Gill Sans&quot;, &quot;Gill Sans MT&quot;, Calibri, sans-serif">"20"</text><text class="speech-bubble-content property-key" x="-121.11328125" y="50" alignment-baseline="central" text-anchor="end" font-size="50px" font-family="&quot;Gill Sans&quot;, &quot;Gill Sans MT&quot;, Calibri, sans-serif" xml:space="preserve">Width: </text><text class="speech-bubble-content property-value" x="-121.11328125" y="50" alignment-baseline="central" font-size="50px" font-family="&quot;Gill Sans&quot;, &quot;Gill Sans MT&quot;, Calibri, sans-serif">"2"</text></g><g class="speech-bubble node-speech-bubble" transform="translate(20.140747910460377,-37.11173934527807) "><path class="speech-bubble-outline" transform="scale(1,1) " d="M 0 0 L 20 -10 L 20 -75 A 10 10 0 0 1 30 -85 L 274.0185546875 -85 A 10 10 0 0 1 284.0185546875 -75 L 284.0185546875 75 A 10 10 0 0 1 274.0185546875 85 L 30 85 A 10 10 0 0 1 20 75 L 20 10 Z" fill="rgb(255, 255, 255)" stroke="rgb(0, 0, 0)" stroke-width="3px"/><text class="speech-bubble-content property-key" x="210.712890625" y="-50" alignment-baseline="central" text-anchor="end" font-size="50px" font-family="&quot;Gill Sans&quot;, &quot;Gill Sans MT&quot;, Calibri, sans-serif" xml:space="preserve">Height: </text><text class="speech-bubble-content property-key" x="210.712890625" y="0" alignment-baseline="central" text-anchor="end" font-size="50px" font-family="&quot;Gill Sans&quot;, &quot;Gill Sans MT&quot;, Calibri, sans-serif" xml:space="preserve">Length: </text><text class="speech-bubble-content property-key" x="210.712890625" y="50" alignment-baseline="central" text-anchor="end" font-size="50px" font-family="&quot;Gill Sans&quot;, &quot;Gill Sans MT&quot;, Calibri, sans-serif" xml:space="preserve">Width: </text><text class="speech-bubble-content property-value" x="210.712890625" y="-50" alignment-baseline="central" font-size="50px" font-family="&quot;Gill Sans&quot;, &quot;Gill Sans MT&quot;, Calibri, sans-serif">"2"</text><text class="speech-bubble-content property-value" x="210.712890625" y="0" alignment-baseline="central" font-size="50px" font-family="&quot;Gill Sans&quot;, &quot;Gill Sans MT&quot;, Calibri, sans-serif">"3"</text><text class="speech-bubble-content property-value" x="210.712890625" y="50" alignment-baseline="central" font-size="50px" font-family="&quot;Gill Sans&quot;, &quot;Gill Sans MT&quot;, Calibri, sans-serif">"4"</text></g><g class="speech-bubble node-speech-bubble" transform="translate(-5.032915383854885,230.2007527378627) "><path class="speech-bubble-outline" transform="scale(1,1) " d="M 0 0 L 20 -10 L 20 -75 A 10 10 0 0 1 30 -85 L 274.0185546875 -85 A 10 10 0 0 1 284.0185546875 -75 L 284.0185546875 75 A 10 10 0 0 1 274.0185546875 85 L 30 85 A 10 10 0 0 1 20 75 L 20 10 Z" fill="rgb(255, 255, 255)" stroke="rgb(0, 0, 0)" stroke-width="3px"/><text class="speech-bubble-content property-key" x="210.712890625" y="-50" alignment-baseline="central" text-anchor="end" font-size="50px" font-family="&quot;Gill Sans&quot;, &quot;Gill Sans MT&quot;, Calibri, sans-serif" xml:space="preserve">Height: </text><text class="speech-bubble-content property-key" x="210.712890625" y="0" alignment-baseline="central" text-anchor="end" font-size="50px" font-family="&quot;Gill Sans&quot;, &quot;Gill Sans MT&quot;, Calibri, sans-serif" xml:space="preserve">Length: </text><text class="speech-bubble-content property-key" x="210.712890625" y="50" alignment-baseline="central" text-anchor="end" font-size="50px" font-family="&quot;Gill Sans&quot;, &quot;Gill Sans MT&quot;, Calibri, sans-serif" xml:space="preserve">Width: </text><text class="speech-bubble-content property-value" x="210.712890625" y="-50" alignment-baseline="central" font-size="50px" font-family="&quot;Gill Sans&quot;, &quot;Gill Sans MT&quot;, Calibri, sans-serif">"1"</text><text class="speech-bubble-content property-value" x="210.712890625" y="0" alignment-baseline="central" font-size="50px" font-family="&quot;Gill Sans&quot;, &quot;Gill Sans MT&quot;, Calibri, sans-serif">"3"</text><text class="speech-bubble-content property-value" x="210.712890625" y="50" alignment-baseline="central" font-size="50px" font-family="&quot;Gill Sans&quot;, &quot;Gill Sans MT&quot;, Calibri, sans-serif">"4"</text></g></g><g class="layer overlay"><circle class="node overlay" r="104.76017021501379" stroke="none" fill="rgba(255, 255, 255, 0)" cx="-580.5582629394531" cy="34.23230842590335"/><circle class="node ring" r="109.76017021501379" fill="none" stroke="rgba(255, 255, 255, 0)" stroke-width="10px" cx="-580.5582629394531" cy="34.23230842590335"/><circle class="node overlay" r="87.77245524872541" stroke="none" fill="rgba(255, 255, 255, 0)" cx="-63.63170733826503" cy="-37.11173934527807"/><circle class="node ring" r="92.77245524872541" fill="none" stroke="rgba(255, 255, 255, 0)" stroke-width="10px" cx="-63.63170733826503" cy="-37.11173934527807"/><path class="relationship overlay" fill="rgba(255, 255, 255, 0)" stroke="rgba(255, 255, 255, 0)" stroke-width="10px" transform="translate(-580.5582629394531,34.23230842590335) rotate(-7.858080983189823)" d="M 115.76017021501379 4 L 391.05417979215173 4 L 391.05417979215173 16 L 423.05417979215173 0 L 391.05417979215173 -16 L 391.05417979215173 -4 L 115.76017021501379 -4 Z"/><circle class="node overlay" r="87.77245524872541" stroke="none" fill="rgba(255, 255, 255, 0)" cx="-88.80537063258029" cy="230.2007527378627"/><circle class="node ring" r="92.77245524872541" fill="none" stroke="rgba(255, 255, 255, 0)" stroke-width="10px" cx="-88.80537063258029" cy="230.2007527378627"/><path class="relationship overlay" fill="rgba(255, 255, 255, 0)" stroke="rgba(255, 255, 255, 0)" stroke-width="10px" transform="translate(-580.5582629394531,34.23230842590335) rotate(21.72777617313245)" d="M 115.76017021501379 4 L 398.58993315663184 4 L 398.58993315663184 16 L 430.58993315663184 0 L 398.58993315663184 -16 L 398.58993315663184 -4 L 115.76017021501379 -4 Z"/></g></svg>